<?xml version="1.0" encoding="UTF-8" standalone="no"?>
<!-- Uploaded to: SVG Repo, www.svgrepo.com, Generator: SVG Repo Mixer Tools -->

<svg
   width="800px"
   height="800px"
   viewBox="0 0 24 24"
   fill="none"
   version="1.1"
   id="svg2"
   sodipodi:docname="radio.svg"
   inkscape:version="1.4.3 (0d15f75042, 2025-12-25)"
   xmlns:inkscape="http://www.inkscape.org/namespaces/inkscape"
   xmlns:sodipodi="http://sodipodi.sourceforge.net/DTD/sodipodi-0.dtd"
   xmlns="http://www.w3.org/2000/svg"
   xmlns:svg="http://www.w3.org/2000/svg">
  <defs
     id="defs2" />
  <sodipodi:namedview
     id="namedview2"
     pagecolor="#ffffff"
     bordercolor="#000000"
     borderopacity="0.25"
     inkscape:showpageshadow="2"
     inkscape:pageopacity="0.0"
     inkscape:pagecheckerboard="0"
     inkscape:deskcolor="#d1d1d1"
     inkscape:zoom="0.61375"
     inkscape:cx="400.81466"
     inkscape:cy="400"
     inkscape:window-width="1299"
     inkscape:window-height="699"
     inkscape:window-x="0"
     inkscape:window-y="0"
     inkscape:window-maximized="1"
     inkscape:current-layer="svg2" />
  <path
     d="m 4.8978512,14.249689 c 0,-1.413743 1.1461034,-2.559891 2.5598919,-2.559891 1.4137885,0 2.5598919,1.146148 2.5598919,2.559891 0,1.413744 -1.1461034,2.559893 -2.5598919,2.559893 -1.4137885,0 -2.5598919,-1.146149 -2.5598919,-2.559893 z"
     fill="#1C274C"
     id="path1"
     style="fill:#000000;stroke-width:1.13773" />
  <path
     fill-rule="evenodd"
     clip-rule="evenodd"
     d="M 15.785357,2.5069418 C 16.211777,2.3062804 16.394837,1.7979428 16.194142,1.371533 15.993447,0.94512327 15.485109,0.76211944 15.058688,0.96278083 L 6.0548313,5.1999027 C 4.0803582,5.3012857 2.8449998,5.6000876 1.9642946,6.4807815 0.63136456,7.813723 0.63136456,9.9590831 0.63136456,14.249689 c 0,4.290607 0,6.436024 1.33293004,7.768874 1.3329415,1.332965 3.4782561,1.332965 7.7689081,1.332965 h 4.5509193 c 4.290606,0 6.436024,0 7.768873,-1.332965 1.332965,-1.33285 1.332965,-3.478267 1.332965,-7.768874 0,-4.2906059 0,-6.4359774 -1.332965,-7.7689075 -1.332849,-1.33293 -3.478267,-1.33293 -7.768873,-1.33293 H 10.173504 Z M 7.4577431,9.9832029 c -2.356318,0 -4.2664866,1.9101341 -4.2664866,4.2664861 0,2.356353 1.9101686,4.266488 4.2664866,4.266488 2.3563521,0 4.2664859,-1.910135 4.2664859,-4.266488 0,-2.356352 -1.9101338,-4.2664861 -4.2664859,-4.2664861 z M 12.861959,10.8365 c 0,-0.471247 0.382051,-0.8532971 0.853298,-0.8532971 h 6.257514 c 0.471247,0 0.853296,0.3820501 0.853296,0.8532971 0,0.471248 -0.382049,0.853298 -0.853296,0.853298 h -6.257514 c -0.471247,0 -0.853298,-0.38205 -0.853298,-0.853298 z m 0.853298,2.559893 c -0.471247,0 -0.853298,0.382049 -0.853298,0.853296 0,0.471248 0.382051,0.853298 0.853298,0.853298 h 6.257514 c 0.471247,0 0.853296,-0.38205 0.853296,-0.853298 0,-0.471247 -0.382049,-0.853296 -0.853296,-0.853296 z m -0.853298,4.266486 c 0,-0.471248 0.382051,-0.853297 0.853298,-0.853297 h 6.257514 c 0.471247,0 0.853296,0.382049 0.853296,0.853297 0,0.471247 -0.382049,0.853298 -0.853296,0.853298 h -6.257514 c -0.471247,0 -0.853298,-0.382051 -0.853298,-0.853298 z"
     fill="#1C274C"
     id="path2"
     style="fill:#ffffff;fill-opacity:1;stroke-width:1.13773" />
</svg>
