<?xml version="1.0" encoding="UTF-8" standalone="no"?>
<!-- Uploaded to: SVG Repo, www.svgrepo.com, Generator: SVG Repo Mixer Tools -->

<svg
   width="800px"
   height="800px"
   viewBox="0 0 24 24"
   fill="none"
   version="1.1"
   id="svg2"
   sodipodi:docname="favicon.svg"
   inkscape:version="1.4.3 (0d15f75042, 2025-12-25)"
   xmlns:inkscape="http://www.inkscape.org/namespaces/inkscape"
   xmlns:sodipodi="http://sodipodi.sourceforge.net/DTD/sodipodi-0.dtd"
   xmlns="http://www.w3.org/2000/svg"
   xmlns:svg="http://www.w3.org/2000/svg">
  <defs
     id="defs2" />
  <sodipodi:namedview
     id="namedview2"
     pagecolor="#000000"
     bordercolor="#000000"
     borderopacity="0.25"
     inkscape:showpageshadow="2"
     inkscape:pageopacity="0.0"
     inkscape:pagecheckerboard="0"
     inkscape:deskcolor="#d1d1d1"
     inkscape:zoom="0.61375"
     inkscape:cx="400.81466"
     inkscape:cy="400"
     inkscape:window-width="1299"
     inkscape:window-height="699"
     inkscape:window-x="0"
     inkscape:window-y="0"
     inkscape:window-maximized="1"
     inkscape:current-layer="svg2" />
  <path
     d="m 4.3112932,14.323009 c 0,-1.724183 1.3977724,-3.12201 3.12201,-3.12201 1.7242376,0 3.1220098,1.397827 3.1220098,3.12201 0,1.724183 -1.3977722,3.122011 -3.1220098,3.122011 -1.7242376,0 -3.12201,-1.397828 -3.12201,-3.122011 z"
     fill="#1C274C"
     id="path1"
     style="fill:#000000;stroke-width:1.38756"
     inkscape:label="Dot" />
  <path
     style="fill:#ffffff;stroke-width:0.0619093"
     d="m 12.936963,18.698421 c -0.753316,-0.372883 -0.758423,-1.470062 -0.0087,-1.85258 0.236332,-0.120568 0.349039,-0.123244 4.503531,-0.106939 l 4.26113,0.01672 0.227375,0.173451 c 0.643827,0.491139 0.55992,1.420839 -0.159672,1.769188 -0.268154,0.129811 -0.318858,0.131319 -4.415115,0.131271 -4.095491,-3.8e-5 -4.146935,-0.0015 -4.408624,-0.131112 z"
     id="path3" />
  <path
     style="fill:#ffffff;stroke-width:0.0552593"
     d="m 12.931784,15.077422 c -0.349494,-0.15872 -0.491865,-0.400158 -0.491865,-0.834114 0,-0.43442 0.12742,-0.649817 0.487535,-0.824146 0.234098,-0.113325 0.300278,-0.115261 3.938941,-0.115261 h 3.700843 l 0.243326,0.124334 c 0.403311,0.206081 0.592097,0.593314 0.496311,1.018018 -0.06399,0.28373 -0.212798,0.46726 -0.496311,0.612129 l -0.243326,0.124334 -3.704475,-0.0012 c -3.493173,-0.0012 -3.717394,-0.0071 -3.930979,-0.104082 z"
     id="path4" />
  <path
     style="fill:#ffffff;stroke-width:0.0564522"
     d="m 12.737854,11.67459 c -0.468105,-0.230673 -0.658018,-0.854654 -0.399899,-1.313915 0.07229,-0.12861 0.221303,-0.289739 0.331156,-0.358063 l 0.199733,-0.1242286 h 3.895194 3.895196 l 0.205854,0.1280116 c 0.515408,0.320509 0.620901,0.968299 0.2328,1.42953 -0.289072,0.343544 -0.160651,0.333724 -4.346149,0.332318 -3.42719,-0.0012 -3.846001,-0.01092 -4.013885,-0.09366 z"
     id="path5" />
  <path
     style="fill:#ffffff;stroke-width:0.052552"
     d="M 6.6857324,18.717346 C 4.4651682,18.314403 2.8840441,16.442391 2.8840441,14.216241 c 0,-1.761744 1.0204553,-3.352627 2.64383,-4.121713 0.6371736,-0.3018662 1.1205766,-0.4047366 1.9019111,-0.4047366 0.8143476,0 1.2738664,0.1041041 1.9969729,0.4524176 1.1509499,0.554399 1.9558169,1.496095 2.3650199,2.767072 0.193282,0.600332 0.239768,1.556927 0.107446,2.211038 -0.215368,1.064624 -0.828455,2.05101 -1.675761,2.696102 -1.0387292,0.79083 -2.3309444,1.119909 -3.5377306,0.900925 z m 1.3221237,-1.788217 c 1.2800949,-0.269254 2.1809049,-1.386972 2.1809049,-2.706051 0,-1.357827 -0.9145082,-2.453981 -2.2701456,-2.721055 -1.4155901,-0.278887 -2.8980285,0.711938 -3.1904732,2.132433 -0.3107098,1.509215 0.6256414,2.96226 2.1235718,3.295395 0.4179402,0.09295 0.7116875,0.09277 1.1561421,-7.22e-4 z"
     id="path6" />
  <path
     fill-rule="evenodd"
     clip-rule="evenodd"
     d="M 15.785357,2.5069418 C 16.211777,2.3062804 16.394837,1.7979428 16.194142,1.371533 15.993447,0.94512327 15.485109,0.76211944 15.058688,0.96278083 L 6.0548313,5.1999027 C 4.0803582,5.3012857 2.8449998,5.6000876 1.9642946,6.4807815 0.63136456,7.813723 0.63136456,9.9590831 0.63136456,14.249689 c 0,4.290607 0,6.436024 1.33293004,7.768874 1.3329415,1.332965 3.4782561,1.332965 7.7689081,1.332965 h 4.5509193 c 4.290606,0 6.436024,0 7.768873,-1.332965 1.332965,-1.33285 1.332965,-3.478267 1.332965,-7.768874 0,-4.2906059 0,-6.4359774 -1.332965,-7.7689075 -1.332849,-1.33293 -3.478267,-1.33293 -7.768873,-1.33293 H 10.173504 Z M 7.4577431,9.9832029 c -2.356318,0 -4.2664866,1.9101341 -4.2664866,4.2664861 0,2.356353 1.9101686,4.266488 4.2664866,4.266488 2.3563521,0 4.2664859,-1.910135 4.2664859,-4.266488 0,-2.356352 -1.9101338,-4.2664861 -4.2664859,-4.2664861 z M 12.861959,10.8365 c 0,-0.471247 0.382051,-0.8532971 0.853298,-0.8532971 h 6.257514 c 0.471247,0 0.853296,0.3820501 0.853296,0.8532971 0,0.471248 -0.382049,0.853298 -0.853296,0.853298 h -6.257514 c -0.471247,0 -0.853298,-0.38205 -0.853298,-0.853298 z m 0.853298,2.559893 c -0.471247,0 -0.853298,0.382049 -0.853298,0.853296 0,0.471248 0.382051,0.853298 0.853298,0.853298 h 6.257514 c 0.471247,0 0.853296,-0.38205 0.853296,-0.853298 0,-0.471247 -0.382049,-0.853296 -0.853296,-0.853296 z m -0.853298,4.266486 c 0,-0.471248 0.382051,-0.853297 0.853298,-0.853297 h 6.257514 c 0.471247,0 0.853296,0.382049 0.853296,0.853297 0,0.471247 -0.382049,0.853298 -0.853296,0.853298 h -6.257514 c -0.471247,0 -0.853298,-0.382051 -0.853298,-0.853298 z"
     fill="#1C274C"
     id="path2"
     style="fill:#ff7f00;fill-opacity:1;stroke-width:1.13773"
     inkscape:label="Main" />
</svg>
